<svg width="31" height="31" viewBox="0 0 31 31" fill="none" xmlns="http://www.w3.org/2000/svg">
<g clip-path="url(#clip0)">
<path d="M5.66041 0C2.52479 0 0 2.52479 0 5.66041V25.3396C0 28.4752 2.52479 31 5.66041 31H16.3264V18.881H13.1217V14.5177H16.3264V10.79C16.3264 7.86123 18.2198 5.17216 22.5816 5.17216C24.3476 5.17216 25.6535 5.3417 25.6535 5.3417L25.5508 9.41628C25.5508 9.41628 24.2189 9.4037 22.7656 9.4037C21.1927 9.4037 20.9405 10.1284 20.9405 11.3315V14.5177H25.6757L25.4694 18.881H20.9405V31.0001H25.3396C28.4752 31.0001 31 28.4753 31 25.3396V5.66045C31 2.52483 28.4752 3.1e-05 25.3396 3.1e-05H5.66038L5.66041 0Z" fill="black"/>
</g>
<defs>
<clipPath id="clip0">
<rect width="31" height="31" fill="white"/>
</clipPath>
</defs>
</svg>
